<svg width="44" height="44" viewBox="0 0 44 44" fill="none" xmlns="http://www.w3.org/2000/svg">
<path d="M18.4727 20.1667C19.5727 20.1667 20.4637 20.9917 20.4435 22C20.4435 23.0083 19.5745 23.8333 18.4727 23.8333C17.391 23.8333 16.5 23.0083 16.5 22C16.5 20.9917 17.3708 20.1667 18.4727 20.1667ZM25.5273 20.1667C26.6292 20.1667 27.5 20.9917 27.5 22C27.5 23.0083 26.6292 23.8333 25.5273 23.8333C24.4457 23.8333 23.5565 23.0083 23.5565 22C23.5565 20.9917 24.4255 20.1667 25.5273 20.1667ZM34.6335 3.66666C36.7657 3.66666 38.5 5.43766 38.5 7.63216V42.1667L34.4465 38.5092L32.164 36.3532L29.7495 34.0615L30.7505 37.6237H9.3665C7.23433 37.6237 5.5 35.8527 5.5 33.6582V7.63216C5.5 5.43766 7.23433 3.66666 9.3665 3.66666H34.6317H34.6335ZM27.3552 28.8072C31.5223 28.6733 33.1265 25.8812 33.1265 25.8812C33.1265 19.6827 30.4095 14.6575 30.4095 14.6575C27.6962 12.5803 25.1112 12.6372 25.1112 12.6372L24.8472 12.9452C28.0537 13.9462 29.5423 15.3908 29.5423 15.3908C27.7916 14.4045 25.8622 13.7763 23.8663 13.5428C22.6003 13.3998 21.3215 13.4121 20.0585 13.5795C19.9448 13.5795 19.8495 13.5997 19.7377 13.618C19.0777 13.6767 17.4735 13.926 15.4568 14.8317C14.7602 15.158 14.344 15.3908 14.344 15.3908C14.344 15.3908 15.9097 13.8692 19.3032 12.8682L19.1143 12.6372C19.1143 12.6372 16.5312 12.5803 13.816 14.6593C13.816 14.6593 11.1008 19.6827 11.1008 25.8812C11.1008 25.8812 12.6848 28.6715 16.852 28.8072C16.852 28.8072 17.5487 27.9418 18.117 27.2103C15.7208 26.477 14.817 24.937 14.817 24.937C14.817 24.937 15.004 25.0727 15.3432 25.2652C15.3615 25.2835 15.3798 25.3037 15.4183 25.322C15.4752 25.3623 15.532 25.3807 15.5888 25.4192C16.06 25.6887 16.5312 25.8995 16.9638 26.0737C17.7375 26.3817 18.6615 26.6897 19.7377 26.9023C21.3498 27.2183 23.0073 27.2245 24.6217 26.9207C25.562 26.7528 26.4794 26.4753 27.3552 26.0938C28.0152 25.8427 28.7503 25.476 29.524 24.9572C29.524 24.9572 28.5817 26.5357 26.1103 27.2488C26.6768 27.9803 27.357 28.8072 27.357 28.8072H27.3552Z" fill="white"/>
</svg>
