<svg width="44" height="44" viewBox="0 0 44 44" fill="none" xmlns="http://www.w3.org/2000/svg">
<path d="M40.6306 10.3693C39.2309 10.9884 37.7466 11.395 36.2269 11.5757C37.8288 10.6176 39.0277 9.10985 39.6002 7.33332C38.0969 8.22799 36.4487 8.85499 34.7309 9.19415C33.577 7.95955 32.0475 7.14075 30.3803 6.86506C28.7131 6.58937 27.0014 6.87222 25.5115 7.66965C24.0216 8.46708 22.8369 9.73441 22.1416 11.2746C21.4463 12.8148 21.2793 14.5416 21.6666 16.1865C18.6179 16.0337 15.6355 15.2414 12.9129 13.8612C10.1903 12.481 7.78845 10.5436 5.86322 8.17482C5.18175 9.34531 4.82364 10.6759 4.82555 12.0303C4.82555 14.6887 6.17855 17.0372 8.23555 18.4122C7.01823 18.3738 5.82771 18.0451 4.76322 17.4533V17.5487C4.76359 19.3191 5.37623 21.035 6.49727 22.4053C7.61832 23.7756 9.17877 24.716 10.9141 25.0672C9.78401 25.3734 8.59911 25.4185 7.44905 25.1992C7.93831 26.7231 8.8919 28.0559 10.1763 29.0109C11.4607 29.9659 13.0116 30.4953 14.6119 30.525C13.0214 31.7741 11.2004 32.6975 9.25283 33.2423C7.30529 33.7871 5.26945 33.9428 3.26172 33.7003C6.7665 35.9543 10.8464 37.1509 15.0134 37.147C29.1172 37.147 36.8301 25.4632 36.8301 15.3303C36.8301 15.0003 36.8209 14.6667 36.8062 14.3403C38.3075 13.2553 39.6031 11.9112 40.6324 10.3712L40.6306 10.3693Z" fill="white"/>
</svg>
