<svg width="44" height="44" viewBox="0 0 44 44" fill="none" xmlns="http://www.w3.org/2000/svg">
<path d="M39.4953 11.913C40.3332 15.18 40.3332 22 40.3332 22C40.3332 22 40.3332 28.82 39.4953 32.087C39.0297 33.8928 37.6675 35.3137 35.9423 35.794C32.8092 36.6667 21.9998 36.6667 21.9998 36.6667C21.9998 36.6667 11.196 36.6667 8.05734 35.794C6.32484 35.3063 4.9645 33.8873 4.50434 32.087C3.6665 28.82 3.6665 22 3.6665 22C3.6665 22 3.6665 15.18 4.50434 11.913C4.97 10.1072 6.33217 8.68634 8.05734 8.20601C11.196 7.33334 21.9998 7.33334 21.9998 7.33334C21.9998 7.33334 32.8092 7.33334 35.9423 8.20601C37.6748 8.69368 39.0352 10.1127 39.4953 11.913V11.913ZM18.3332 28.4167L29.3332 22L18.3332 15.5833V28.4167Z" fill="white"/>
</svg>
